<svg xmlns="http://www.w3.org/2000/svg" width="1100" height="620" viewBox="0 0 1100 620" role="img" aria-labelledby="title desc">
<title id="title">전용 GPU 메모리 및 Apple 통합 메모리</title><desc id="desc">전용 GPU 시스템은 시스템 RAM과 GPU VRAM이 분리되어 있습니다. Apple 통합 메모리는 CPU와 GPU가 공유하는 하나의 물리 메모리 풀입니다. 두 경우 모두 가중치, 모델 상태, 작업 공간, 다른 애플리케이션을 위한 공간이 필요합니다. 상자 크기는 실제 비율이 아닙니다.</desc>
<style>
.bg{fill:#fbfaf6}.ink,.t1{fill:#16150f}.t2{fill:#47443c}.t3{fill:#6b675d}.ln{fill:none;stroke:#16150f}.box{fill:#fbfaf6;stroke:#16150f}
.soft{fill:#f6f4ee;stroke:#c3beb0}.os{fill:#d9d5c9;stroke:#16150f}.rl{fill:none;stroke:#6b675d}.tape{fill:#ffcd05}
@media (prefers-color-scheme:dark){.bg{fill:#1a1a16}.ink,.t1{fill:#eeece4}.t2{fill:#bdb9ad}.t3{fill:#959186}.ln{stroke:#eeece4}.box{fill:#1a1a16;stroke:#eeece4}
.soft{fill:#1f1f1a;stroke:#45433b}.os{fill:#45433b;stroke:#eeece4}.rl{stroke:#959186}}
text{font-family:'Schibsted Grotesk Variable','Schibsted Grotesk',system-ui,-apple-system,'Segoe UI','Noto Sans',sans-serif}
</style>
<defs>
<pattern id="hatch" width="7" height="7" patternUnits="userSpaceOnUse" patternTransform="rotate(45)"><rect width="7" height="7" class="bg"/><path d="M0 0V7" class="ln" stroke-width="2.2"/></pattern>
<pattern id="dots" width="7" height="7" patternUnits="userSpaceOnUse"><rect width="7" height="7" class="bg"/><circle cx="3.5" cy="3.5" r="1.35" class="ink"/></pattern>
</defs>
<rect width="1100" height="620" class="bg"/>
<text x="40" y="52" font-size="24" font-weight="700" class="t1" data-fit="1010" data-rtl-x="1060">모델 메모리는 어디에 있나요?</text>
<text x="40" y="81" font-size="15" class="t2" data-fit="1010" data-rtl-x="1060">메모리의 개념적 소유 구조 · 실제 비율 아님</text>
<path d="M40 106H1060" class="rl" stroke-dasharray="2 4"/>
<text x="40" y="140" font-size="20" font-weight="650" class="t1" data-fit="460" data-rtl-x="500">전용 GPU</text>
<text x="600" y="140" font-size="20" font-weight="650" class="t1" data-fit="460" data-rtl-x="1060">Apple 통합 메모리</text>

<rect x="40.5" y="162.5" width="459" height="109" rx="4" class="soft"/>
<text x="62" y="194" font-size="17" font-weight="650" class="t1" data-fit="416" data-rtl-x="478">시스템 RAM · CPU</text>
<text x="62" y="226" font-size="14.5" class="t2" data-fit="416" data-rtl-x="478">OS, 애플리케이션, 로딩 및 선택적 오프로드</text>
<path d="M270 278V310M263 302l7 8 7-8" class="ln" stroke-width="1.5"/>
<text x="288" y="299" font-size="13" class="t3" data-fit="200" data-rtl-x="252">데이터 전송</text>

<rect x="40.5" y="322.5" width="459" height="209" rx="4" class="box" stroke-width="1.5"/>
<rect x="40" y="322" width="460" height="5" class="tape"/>
<text x="62" y="358" font-size="17" font-weight="650" class="t1" data-fit="416" data-rtl-x="478">GPU VRAM · 별도 용량</text>
<rect x="62.5" y="378.5" width="415" height="33" class="box"/><rect x="62.5" y="378.5" width="44" height="33" class="ink"/>
<text x="120" y="400" font-size="14.5" class="t1" data-fit="350" data-rtl-x="466">상주 모델 가중치</text>
<rect x="62.5" y="422.5" width="415" height="33" class="box"/><rect x="62.5" y="422.5" width="44" height="33" fill="url(#hatch)"/><rect x="62.5" y="422.5" width="44" height="33" class="ln"/>
<text x="120" y="444" font-size="14.5" class="t1" data-fit="350" data-rtl-x="466">KV 캐시 / 아키텍처별 상태</text>
<rect x="62.5" y="466.5" width="415" height="33" class="box"/><rect x="62.5" y="466.5" width="44" height="33" fill="url(#dots)"/><rect x="62.5" y="466.5" width="44" height="33" class="ln"/>
<text x="120" y="488" font-size="14.5" class="t1" data-fit="350" data-rtl-x="466">런타임 작업 공간 및 기타 할당</text>

<rect x="600.5" y="162.5" width="214" height="51" rx="4" class="soft"/><text x="707" y="194" font-size="17" font-weight="650" text-anchor="middle" class="t1">CPU</text>
<rect x="845.5" y="162.5" width="214" height="51" rx="4" class="soft"/><text x="952" y="194" font-size="17" font-weight="650" text-anchor="middle" class="t1">GPU</text>
<path d="M707 214V246H952V214M830 246V256M830 282V294" class="ln" stroke-width="1.5"/>
<text x="830" y="274" font-size="13" text-anchor="middle" class="t3" data-fit="440">같은 물리 메모리 풀에 접근</text>

<rect x="600.5" y="294.5" width="459" height="237" rx="4" class="box" stroke-width="1.5"/>
<rect x="600" y="294" width="460" height="5" class="tape"/>
<text x="622" y="330" font-size="17" font-weight="650" class="t1" data-fit="416" data-rtl-x="1038">공유 용량 · 시스템 여유 공간 남기기</text>
<rect x="622.5" y="344.5" width="415" height="31" class="box"/><rect x="622.5" y="344.5" width="44" height="31" class="os"/>
<text x="680" y="365" font-size="14.5" class="t1" data-fit="350" data-rtl-x="1026">OS 및 기타 애플리케이션</text>
<rect x="622.5" y="386.5" width="415" height="31" class="box"/><rect x="622.5" y="386.5" width="44" height="31" class="ink"/>
<text x="680" y="407" font-size="14.5" class="t1" data-fit="350" data-rtl-x="1026">상주 모델 가중치</text>
<rect x="622.5" y="428.5" width="415" height="31" class="box"/><rect x="622.5" y="428.5" width="44" height="31" fill="url(#hatch)"/><rect x="622.5" y="428.5" width="44" height="31" class="ln"/>
<text x="680" y="449" font-size="14.5" class="t1" data-fit="350" data-rtl-x="1026">KV 캐시 / 아키텍처별 상태</text>
<rect x="622.5" y="470.5" width="415" height="31" class="box"/><rect x="622.5" y="470.5" width="44" height="31" fill="url(#dots)"/><rect x="622.5" y="470.5" width="44" height="31" class="ln"/>
<text x="680" y="491" font-size="14.5" class="t1" data-fit="350" data-rtl-x="1026">런타임 작업 공간 및 기타 할당</text>

<path d="M40 552H1060" class="rl" stroke-dasharray="2 4"/>
<text x="40" y="578" font-size="14.5" class="t2" data-fit="1020" data-rtl-x="1060">디스크 공간은 두 다이어그램과 별개입니다. 디스크에 들어간다고 해서 메모리에 들어간다는 증거는 아닙니다.</text>
<text x="40" y="602" font-size="13" class="t3" data-fit="1020" data-rtl-x="1060">런타임 한도, 오프로드, 공유, 최대 할당량은 장치, 엔진, 워크로드에 따라 달라집니다.</text>
</svg>
